# xmcd
#
# Track frame offsets:
#	150
#	11863
#	22478
#	35441
#	50513
#	62136
#	74128
#	86631
#	96388
#	109302
#	124608
#	137508
#	151188
#	163464
#	174882
#
# Disc length: 2525 seconds
#
# Revision: 1
# Processed by: cddbd v1.5.2PL0 Copyright (c) Steve Scherf et al.
# Submitted via: audiograbber 1.83.01
#
DISCID=da09db0f
DTITLE=Ray Charles - theintrocollection CD1
DYEAR=1955
DGENRE=Blues
TTITLE0=Hallelujah, I Love Her So
TTITLE1=Get On The Right Track, Baby
TTITLE2=Ain´t That Love?
TTITLE3=Drown In My Own Tears
TTITLE4=Lonely Avenue
TTITLE5=Leave My Woman Alone
TTITLE6=Talkin' 'Bout You
TTITLE7=I Want To Know
TTITLE8=What Kind Of Man Are You
TTITLE9=Sinner's Prayer
TTITLE10=I Want A Little Girl
TTITLE11=A Fool For You
TTITLE12=It Should've Been Me
TTITLE13=This Little Girl Of Mine
TTITLE14=Funny (But I Still Love You)
EXTD=
EXTT0=
EXTT1=
EXTT2=
EXTT3=
EXTT4=
EXTT5=
EXTT6=
EXTT7=
EXTT8=
EXTT9=
EXTT10=
EXTT11=
EXTT12=
EXTT13=
EXTT14=
PLAYORDER=
